# xmcd CD database file
#
# Track frame offsets:
#	150
#	22692
#	43775
#	66330
#
# Disc length: 1162 seconds
#
# Revision: 0
# Processed by: cddbd v1.5PL3 Copyright (c) Steve Scherf et al.
# Submitted via: CDex 1.50
#
DISCID=2b048804
DTITLE=CYBER NATION NETWORK - The Power of Love
DYEAR=1997
DGENRE=Anime
TTITLE0=The Power of Love
TTITLE1=Little touch of happiness
TTITLE2=The Power of Love (インストルメンタル)
TTITLE3=Little touch of happiness (インストルメンタル)
EXTD=YEAR: 1997
EXTT0=
EXTT1=
EXTT2=
EXTT3=
PLAYORDER=
